<?xml version="1.0" standalone="no"?><!DOCTYPE svg PUBLIC "-//W3C//DTD SVG 1.1//EN" "http://www.w3.org/Graphics/SVG/1.1/DTD/svg11.dtd"><svg class="icon" height="512" viewBox="0 0 1024 1024" version="1.1" xmlns="http://www.w3.org/2000/svg"><path d="M497.507522 713.019794c206.999208 2.280285 269.833729-173.200317 154.603325-359.879652C590.543151 253.669042 508.148852 130.482977 532.877276 0 440.652415 157.491686 84.370546 708.56057 497.507522 713.019794zM446.935867 400.772763c14.289786 22.397466 25.032462 47.27791 29.086302 75.350752 6.58749-38.866192-19.002375-109.098971 27.87015-188.402217 7.09422-11.806809 12.364212-22.752177 16.975455-31.467933C507.084719 336.72209 553.146477 412.680918 587.452098 473.995249c64.405384 115.129058 29.288994 223.315914-86.29612 221.89707C342.600158 694.017419 387.04038 532.877276 446.935867 400.772763zM932.484561 902.688836l-32.684086 121.311164-388.965954-105.045131L121.41251 1012.395883l-29.339667-122.020586 165.599367-39.778306L91.008709 805.65004l32.684086-121.311164 388.965954 105.045131 389.472684-93.491686 29.288994 122.121932-165.548694 39.778306L932.484561 902.688836z" /></svg>